<?xml version="1.0" encoding="utf-8"?>
<!-- Generator: Adobe Illustrator 26.2.1, SVG Export Plug-In . SVG Version: 6.00 Build 0)  -->
<svg version="1.1" id="Layer_1" xmlns="http://www.w3.org/2000/svg" xmlns:xlink="http://www.w3.org/1999/xlink" x="0px" y="0px"
	 viewBox="0 0 101.36 101.36" style="enable-background:new 0 0 101.36 101.36;" xml:space="preserve">
<style type="text/css">
	.st0{fill:#F2F2F2;}
	.st1{clip-path:url(#SVGID_00000128483251796009633110000011385562458736316809_);}
	.st2{fill:#57B6CA;}
</style>
<circle class="st0" cx="50.68" cy="50.68" r="50.68"/>
<g id="Group_35" transform="translate(29.256 29.882)">
	<g>
		<g>
			<defs>
				<rect id="SVGID_1_" x="-13.3" y="-14.82" width="71.62" height="66.74"/>
			</defs>
			<clipPath id="SVGID_00000029021235220530726240000017149175127351640978_">
				<use xlink:href="#SVGID_1_"  style="overflow:visible;"/>
			</clipPath>
			
				<g id="Group_34" transform="translate(0 0)" style="clip-path:url(#SVGID_00000029021235220530726240000017149175127351640978_);">
				<path id="Path_97" class="st2" d="M-8.62,42.59c-2.59,0-4.69,2.08-4.69,4.66s2.1,4.67,4.69,4.67s4.69-2.09,4.69-4.67
					S-6.04,42.59-8.62,42.59L-8.62,42.59"/>
				<path id="Path_98" class="st2" d="M11.01,19.18c-5.8,0-10.5,4.69-10.5,10.47s4.7,10.47,10.5,10.47s10.5-4.69,10.5-10.47l0,0
					C21.51,23.88,16.81,19.18,11.01,19.18"/>
				<path id="Path_99" class="st2" d="M41.08-14.82c-9.51,0-17.23,7.7-17.23,17.19s7.72,17.19,17.23,17.19s17.23-7.7,17.23-17.19
					C58.31-7.12,50.59-14.82,41.08-14.82L41.08-14.82"/>
			</g>
		</g>
	</g>
</g>
</svg>
